<svg width="257" height="40" viewBox="0 0 257 40" fill="none" xmlns="http://www.w3.org/2000/svg">
<path fill-rule="evenodd" clip-rule="evenodd" d="M213.955 8.2247C211.726 8.2247 209.934 6.43355 209.934 4.13063C209.934 1.86427 211.762 0 214.028 0C216.295 0 218.159 1.79116 218.159 4.05752C218.159 6.36044 216.295 8.2247 213.955 8.2247ZM137.52 32.2774H130.868V4.27685H137.63V11.9532C137.63 11.9532 140.628 9.39444 144.539 9.39444C151.155 9.39444 155.066 14.9872 155.066 21.0918C155.066 27.3426 151.082 32.8257 144.758 32.8257C141.797 32.8257 139.604 31.985 137.52 29.9379V32.2774ZM116.356 32.8257C109.447 32.8257 104.695 28.622 104.695 21.0918C104.695 14.2927 109.556 9.39444 116.173 9.39444C122.643 9.39444 127.212 13.6713 127.212 21.6767L127.214 21.8712C127.215 21.9847 127.218 22.0878 127.221 22.1862C127.229 22.4608 127.236 22.6995 127.212 23.0292H111.421C112.006 25.6976 114.126 26.977 116.685 26.977C118.787 26.977 120.207 25.5797 121.343 24.1332L121.546 23.8699C121.546 23.8699 124.861 25.7811 126.416 26.7155L126.847 26.977C124.873 30.4862 121.071 32.8257 116.356 32.8257ZM74.7568 32.2774L66.2031 9.83309H73.3678L77.8274 22.2615L81.9214 9.83309H87.368L91.6814 22.3346L96.1045 9.83309H103.159L94.7154 32.2774H88.8302L84.663 20.2145L80.642 32.2774H74.7568ZM116.1 15.0969C118.22 15.0969 119.39 16.1204 120.194 18.2771H111.677C112.517 16.1935 113.797 15.0969 116.1 15.0969ZM143.004 15.6818C146.074 15.6818 148.304 18.0943 148.304 20.9456C148.304 24.1258 146.622 26.7943 143.296 26.7943C139.75 26.7943 137.447 24.5644 137.447 21.0918C137.447 17.8385 139.823 15.6818 143.004 15.6818ZM169.761 33.045C162.889 33.045 157.625 27.4157 157.625 21.1649C157.625 14.4389 162.999 9.39444 169.907 9.39444C176.707 9.39444 182.007 14.2927 182.007 21.0552C182.007 27.8909 177.072 33.045 169.761 33.045ZM169.871 15.7914C173.051 15.7914 175.244 18.0578 175.244 20.9456C175.244 24.4548 173.197 26.6115 169.834 26.6115C166.727 26.6115 164.424 24.272 164.424 21.2746C164.424 18.204 166.581 15.7914 169.871 15.7914ZM199.078 32.2774H193.01L183.615 9.83309H191.219L196.117 22.9561L200.723 9.83309H207.887L199.078 32.2774ZM217.391 9.83309H210.592V32.2774H217.391V9.83309ZM221.047 21.1649C221.047 27.4157 226.311 33.045 233.183 33.045C240.494 33.045 245.429 27.8909 245.429 21.0552C245.429 14.2927 240.128 9.39444 233.329 9.39444C226.42 9.39444 221.047 14.4389 221.047 21.1649ZM238.666 20.9456C238.666 18.0578 236.473 15.7914 233.293 15.7914C230.003 15.7914 227.846 18.204 227.846 21.2746C227.846 24.272 230.149 26.6115 233.256 26.6115C236.619 26.6115 238.666 24.4548 238.666 20.9456Z" fill="white"/>
<path d="M252.082 24.1816C254.385 24.1816 256.285 26.0825 256.285 28.3854C256.285 30.6883 254.385 32.5891 252.082 32.5891C249.779 32.5891 247.878 30.6883 247.878 28.3854C247.878 26.0825 249.779 24.1816 252.082 24.1816Z" fill="white"/>
<path fill-rule="evenodd" clip-rule="evenodd" d="M36.6506 34.4834C35.3504 36.6504 32.2098 36.6504 30.9096 34.4834L12.7819 4.27054L48.8659 4.27054C51.468 4.27054 53.0751 7.10916 51.7364 9.34038L36.6506 34.4834Z" fill="#FFD723"/>
<path fill-rule="evenodd" clip-rule="evenodd" d="M18.1277 34.4834C19.4279 36.6504 22.5685 36.6504 23.8687 34.4834L41.9964 4.27054L5.91239 4.27054C3.31037 4.27054 1.70317 7.10916 3.0419 9.34038L18.1277 34.4834Z" fill="white"/>
<path fill-rule="evenodd" clip-rule="evenodd" d="M12.7812 4.26953H41.9962L27.3897 28.6153L12.7812 4.26953Z" fill="#F6F6F6"/>
</svg>
